<svg xmlns="http://www.w3.org/2000/svg" width="112" height="40" viewBox="0 0 112 40" xmlns:xlink="http://www.w3.org/1999/xlink">
 <g fill="none" fill-rule="evenodd">
  <path fill="#0069B4" d="M24.4767,27.5327 L25.5368,24.2449 L34.0267,24.2449 L36.339,31.3792 L9.8108,40 L0,9.8108 L30.1903,0 L32.1919,6.1793 L27.3716,6.1793 L20.4232,27.5327 L24.4767,27.5327 Z M29.783,11.2225 L32.8648,20.7064 L26.6967,20.7064 L29.783,11.2225 Z">
  </path>
  <path fill="#000" d="M66.168,13.4391 C65.737,11.7297 64.449,9.3598 61.065,9.3598 C56.997,9.3598 55.305,13.1391 55.305,16.8523 C55.305,20.5722 56.997,24.3526 61.065,24.3526 C63.787,24.3526 66.252,22.342 66.252,19.4024 L61.209,19.4024 L61.209,15.8627 L69.748,15.8627 L69.748,27.5318 L66.425,27.5318 L66.425,25.7004 C65.078,27.2911 62.841,28.0691 61.065,28.0691 C54.532,28.0691 51.293,22.8805 51.293,16.8512 C51.293,10.8263 54.961,5.6377 61.065,5.6377 C65.221,5.6377 68.201,7.8273 69.748,11.9066 L66.168,13.4391 Z M82.151,28.0714 C88.385,28.0714 92.128,22.8827 92.128,16.8534 C92.128,10.8286 88.385,5.6399 82.151,5.6399 C75.929,5.6399 72.183,10.8286 72.183,16.8534 C72.183,22.8827 75.928,28.0714 82.151,28.0714 Z M82.151,24.3537 C78.007,24.3537 76.279,20.5734 76.279,16.8535 C76.279,13.1391 78.007,9.3599 82.151,9.36099976 C86.306,9.36099976 88.034,13.1403 88.034,16.8535 C88.034,20.5734 86.306,24.3537 82.151,24.3537 Z M39.49,23.8119 L50.928,23.8119 L50.928,27.5329 L39.133,27.5329 L35.4722,16.2634 L35.4722,6.1795 L50.153,6.1795 L50.153,9.8994 L39.49,9.8994 L39.49,14.7544 L47.558,14.7544 L47.558,18.2941 L39.49,18.2941 L39.49,23.8119 Z M107.404,6.1795 L107.404,20.6136 L98.507,6.1795 L94.685,6.1795 L94.685,27.5329 L98.344,27.5329 L98.344,12.8917 L107.374,27.5329 L111.063,27.5329 L111.063,6.1795 L107.404,6.1795 Z M40.785,32.6163 L98.344,32.6163 L98.344,34.8015 L41.495,34.8015 L40.785,32.6163 Z">
  </path>
 </g>
</svg>