<svg xmlns="http://www.w3.org/2000/svg" width="131" height="47" viewBox="0 0 131 47" xmlns:xlink="http://www.w3.org/1999/xlink">
 <g fill="#DC0028" opacity=".9">
  <path d="M15.147 19.593c4.018 3.885 5.581 10.424 6.276 13.001.405 1.51 1.96 2.404 3.475 2 1.514-.405 2.412-1.957 2.006-3.464-.695-2.577-2.618-9.019-1.086-14.384 1.366-5.411 6.267-10.028 8.159-11.916 1.109-1.105 1.109-2.896 0-4.001-1.109-1.105-2.906-1.105-4.012 0-1.895 1.888-6.528 6.77-11.958 8.13-5.384 1.527-11.848-.393-14.434-1.082-1.515-.404-3.07.49-3.475 2-.406 1.509.491 3.058 2.006 3.462 2.583.693 9.145 2.25 13.043 6.254z">
  </path>
  <g>
   <path d="M10.765 14.698c-.808.35-1.99.826-3.92.826-4.165 0-6.8-2.33-6.8-7.426C.046 3.005 2.886.672 7.26.672c1.804 0 3.256.433 3.256.433v3.92H8.589V3.168l-.352-.35c-.312-.04-.622-.083-.974-.083-2.86 0-3.73 1.897-3.73 5.073 0 3.651.87 5.568 3.896 5.568.373 0 .705 0 1.037-.04l.372-.37v-2h1.927v3.732zM22.228 15.316h-3.295c-.83 0-.954-.475-.954-.908v-.33h-.103c-.332.37-1.348 1.443-2.943 1.443-2.385 0-3.152-1.506-3.152-3.278 0-1.937 1.432-3.074 3.67-3.074h2.342v-.991c0-1.196-.063-2.062-1.843-2.062-.27 0-.602.02-.934.062l-.312.31v1.445h-1.927V4.777c0 .02 1.741-.598 4.292-.598 2.963 0 3.876 1.586 3.876 3.506v5.754l.373.37h.913v1.507h-.003zm-4.438-2.683v-1.795H16.32c-.954 0-1.389.414-1.389 1.094 0 .866.29 1.26 1.266 1.26.684 0 1.265-.331 1.594-.559zM27.16 5.93v7.506l.373.37h2.01v1.507s-1.326.206-2.797.206c-1.804 0-2.737-.661-2.737-2.558V5.93h-1.286V4.427h.914l.372-.37 1.182-2.559h1.97v2.929h2.322v1.506H27.16v-.002zM40.49 15.316h-3.294c-.828 0-.954-.475-.954-.908v-.33h-.103c-.332.37-1.348 1.443-2.943 1.443-2.385 0-3.152-1.506-3.152-3.278 0-1.937 1.431-3.074 3.67-3.074h2.342v-.991c0-1.196-.063-2.062-1.844-2.062-.269 0-.6.02-.933.062l-.312.31v1.445H31.04V4.777c0 .02 1.74-.598 4.292-.598 2.963 0 3.876 1.586 3.876 3.506v5.754l.372.37h.914l-.003 1.507zm-4.437-2.683v-1.795h-1.471c-.954 0-1.389.414-1.389 1.094 0 .866.29 1.26 1.266 1.26.684 0 1.262-.331 1.594-.559zM44.51.26c.83 0 .954.475.954.908v12.271l.352.37h.933v1.507h-5.72V13.81h.913l.373-.37V2.136l-.373-.37h-.913V.26h3.481zM57.923 15.316h-3.295c-.83 0-.953-.475-.953-.908v-.33h-.103c-.332.37-1.349 1.443-2.943 1.443-2.385 0-3.153-1.506-3.153-3.278 0-1.937 1.432-3.074 3.67-3.074h2.343v-.991c0-1.196-.063-2.062-1.844-2.062-.27 0-.601.02-.933.062l-.312.31v1.445h-1.927V4.777c0 .02 1.74-.598 4.291-.598 2.963 0 3.877 1.586 3.877 3.506v5.754l.372.37h.913l-.003 1.507zm-4.437-2.683v-1.795h-1.472c-.953 0-1.388.414-1.388 1.094 0 .866.289 1.26 1.265 1.26.684 0 1.266-.331 1.595-.559zM58.628 15.316V13.81h.913l.372-.37V6.261l-.372-.37h-.913V4.384h3.295c.827 0 .953.476.953.908v.33h.103c.332-.37 1.409-1.443 3.047-1.443 2.467 0 3.192 1.484 3.192 3.298v5.96l.372.37h.913v1.506H65.03v-1.506h.684l.353-.37V7.972c0-.621-.063-1.464-1.369-1.464-.724 0-1.325.33-1.638.558v6.372l.353.37h.684v1.507h-5.468zM81.574 15.316H78.28c-.83 0-.953-.475-.953-.908v-.33h-.103c-.333.37-1.349 1.443-2.944 1.443-2.384 0-3.152-1.506-3.152-3.278 0-1.937 1.432-3.074 3.67-3.074h2.343v-.991c0-1.196-.063-2.062-1.844-2.062-.27 0-.601.02-.934.062l-.312.31v1.445h-1.926V4.777c0 .02 1.74-.598 4.291-.598 2.963 0 3.877 1.586 3.877 3.506v5.754l.372.37h.913l-.003 1.507zm-4.437-2.683v-1.795h-1.472c-.953 0-1.388.414-1.388 1.094 0 .866.289 1.26 1.265 1.26.684 0 1.265-.331 1.595-.559z" transform="translate(40.797 .746)">
   </path>
  </g>
  <g>
   <path d="M6.335 15.641c-3.758 0-6.186-2.31-6.186-7.426S2.577.789 6.335.789c3.755 0 6.185 2.31 6.185 7.426-.003 5.116-2.43 7.426-6.185 7.426zm0-12.704c-2.096 0-2.698 1.712-2.698 5.28 0 3.57.602 5.282 2.698 5.282 2.095 0 2.697-1.712 2.697-5.281 0-3.57-.602-5.281-2.697-5.281zM22.105 14.818c-.538.535-1.825.826-3.05.826-2.8 0-5.27-1.61-5.27-5.529 0-3.917 2.553-5.817 5.583-5.817 1.6 0 2.76.453 2.76.453v3.507H20.2v-1.63l-.372-.35c-.083-.02-.147-.02-.23-.02-1.826 0-2.594 1.322-2.594 3.734 0 2.7 1.018 3.63 2.927 3.63.914 0 1.889-.288 2.178-.394v1.59h-.003zM31.613 14.818c-.539.535-1.826.826-3.05.826-2.803 0-5.27-1.61-5.27-5.529 0-3.917 2.553-5.817 5.583-5.817 1.596 0 2.76.453 2.76.453v3.507h-1.929v-1.63l-.373-.35c-.083-.02-.146-.02-.226-.02-1.826 0-2.594 1.322-2.594 3.734 0 2.7 1.017 3.63 2.926 3.63.915 0 1.89-.288 2.179-.394v1.59h-.006zM36.26 4.503c.83 0 .954.476.954.91v8.146l.353.37h.934v1.507h-5.727v-1.507h.914l.373-.37V6.38l-.373-.37h-.914V4.502h3.486zM35.45.071c1.184 0 1.763.641 1.763 1.65 0 1.01-.582 1.649-1.763 1.649-1.184 0-1.763-.638-1.763-1.65-.002-1.01.58-1.649 1.763-1.649zM47.238 15.436c-.832 0-.955-.476-.955-.909v-.33H46.2c-.499.68-1.596 1.444-2.8 1.444-2.159 0-3.965-1.65-3.965-5.569 0-3.92 1.806-5.774 3.965-5.774 1.037 0 2.138.618 2.697 1.28V2.255l-.373-.37h-.914V.379h3.485c.832 0 .955.476.955.909v12.27l.373.371h.914v1.507h-3.3zm-1.141-2.846V7.167c-.539-.413-1.161-.536-1.577-.536-1.39 0-1.868.969-1.868 3.342 0 2.372.478 3.32 1.868 3.32.436-.002 1.018-.23 1.577-.703zM60.105 10.508h-5.5c.102 2.31.954 3.156 2.969 3.156 1.1 0 1.972-.33 2.304-.433v1.65c-.539.37-1.6.763-3.382.763-2.677 0-5.065-1.567-5.065-5.444 0-4.002 2.159-5.899 4.753-5.899 2.51 0 4.296 1.692 4.296 4.435v1.402l-.375.37zm-5.478-1.444h2.864v-.536c0-1.59-.333-2.35-1.287-2.35-.975-.002-1.454 1.029-1.577 2.886zM61.475 15.436v-1.507h.914l.373-.37V6.38l-.373-.37h-.914V4.502h3.3c.83 0 .954.476.954.91v.33h.103c.332-.37 1.41-1.445 3.05-1.445 2.47 0 3.196 1.484 3.196 3.299v5.962l.372.37h.915v1.507h-5.48v-1.507h.684l.353-.37V8.093c0-.619-.063-1.465-1.37-1.465-.728 0-1.327.33-1.64.559v6.372l.353.37h.685v1.507h-5.475zM78.37 6.05v7.509l.372.37h2.012v1.507s-1.327.205-2.8.205c-1.806 0-2.74-.66-2.74-2.558V6.05h-1.288V4.543h.915l.372-.37 1.184-2.558h1.972v2.928h2.325V6.05h-2.325zM90.116 10.508h-5.5c.102 2.31.954 3.156 2.969 3.156 1.1 0 1.972-.33 2.304-.433v1.65c-.539.37-1.596.763-3.382.763-2.677 0-5.065-1.567-5.065-5.444 0-4.002 2.158-5.899 4.752-5.899 2.511 0 4.297 1.692 4.297 4.435v1.402l-.375.37zm-5.48-1.444h2.863v-.536c0-1.59-.333-2.35-1.287-2.35-.975-.002-1.45 1.029-1.577 2.886z" transform="translate(40.797 18.65)">
   </path>
  </g>
  <g>
   <path d="M.628.984L.456.812.034.812.034.114 2.771.114 2.771.812 2.341.812 2.178.984 2.178 5.931 2.341 6.103 2.771 6.103 2.771 6.801.034 6.801.034 6.103.456 6.103.628 5.931zM3.499 6.8v-.697h.421l.172-.172V2.608l-.172-.171H3.5v-.698H5.02c.384 0 .44.22.44.42v.152h.05c.154-.172.65-.67 1.407-.67 1.137 0 1.473.687 1.473 1.528V5.93l.171.172h.422V6.8H6.456v-.698h.315l.164-.172v-2.53c0-.287-.029-.678-.633-.678-.336 0-.614.154-.757.257V5.93l.163.172h.316V6.8H3.499zM11.225 6.895c-1.015 0-1.637-.22-1.637-.22V5.262h.794v.64l.164.172c.2.029.42.037.679.037.556 0 .736-.248.736-.612 0-.371-.106-.554-.9-.715-1.186-.237-1.444-.869-1.444-1.527 0-1.012.748-1.613 2.04-1.613.823 0 1.456.163 1.456.163v1.385h-.794v-.584l-.163-.151c-.152-.02-.315-.038-.499-.038-.478 0-.765.21-.765.515 0 .306.029.535.748.678 1.252.257 1.705.718 1.705 1.481-.006 1.219-.885 1.802-2.12 1.802zM18.271 1.739c.384 0 .442.22.442.42v3.772l.171.172h.422V6.8h-1.522c-.384 0-.441-.22-.441-.42v-.152h-.049c-.152.171-.622.669-1.358.669-1.138 0-1.473-.69-1.473-1.527V2.61l-.172-.172h-.421v-.697h1.607c.384 0 .442.22.442.42v2.98c0 .286.028.678.584.678.335 0 .602-.155.757-.258V2.611l-.172-.172h-.422v-.697h1.605v-.003zM22.042 6.103h.536V6.8H19.83v-.698h.421l.172-.172V2.608l-.172-.171h-.42v-.698h1.52c.385 0 .442.22.442.42v.249h.049c.155-.192.633-.764 1.378-.764.18 0 .364.029.364.029v1.996h-.862V3l-.164-.15c-.298.057-.544.17-.679.248v2.834l.163.172zM28.802 6.8h-1.521c-.384 0-.442-.22-.442-.42V6.23h-.048c-.155.171-.622.669-1.359.669-1.1 0-1.455-.698-1.455-1.519 0-.898.659-1.424 1.693-1.424h1.083v-.457c0-.555-.028-.956-.85-.956-.127 0-.279.009-.43.029l-.144.143v.67h-.891V1.921c0 .008.802-.278 1.98-.278 1.37 0 1.791.735 1.791 1.625V5.93l.172.172h.421V6.8zm-2.049-1.24v-.833h-.679c-.441 0-.642.192-.642.506 0 .4.135.584.585.584.315 0 .585-.155.736-.258zM29.272 6.8v-.697h.422l.172-.172V2.608l-.172-.171h-.422v-.698h1.522c.384 0 .441.22.441.42v.152h.049c.155-.172.65-.67 1.407-.67 1.138 0 1.473.687 1.473 1.528V5.93l.172.172h.421V6.8H32.23v-.698h.315l.163-.172v-2.53c0-.287-.028-.678-.63-.678-.335 0-.613.154-.757.257V5.93l.164.172h.315V6.8h-2.528zM39.101 6.515c-.249.248-.842.383-1.407.383-1.292 0-2.43-.744-2.43-2.56s1.178-2.694 2.574-2.694c.736 0 1.272.21 1.272.21v1.624h-.891v-.755l-.172-.163c-.037-.01-.066-.01-.106-.01-.843 0-1.198.613-1.198 1.731 0 1.25.47 1.682 1.35 1.682.421 0 .87-.135 1.006-.18l.002.732zM43.804 4.518h-2.536c.049 1.07.441 1.462 1.37 1.462.507 0 .908-.152 1.063-.2v.763c-.25.172-.737.355-1.562.355-1.235 0-2.335-.727-2.335-2.523 0-1.853.994-2.73 2.192-2.73 1.157 0 1.98.783 1.98 2.053v.649l-.172.171zm-2.528-.669h1.322V3.6c0-.734-.152-1.09-.594-1.09-.45 0-.67.478-.728 1.34zM51.747 4.393v2.119c-.392.163-.965.383-1.905.383-1.894 0-3.092-1.078-3.092-3.438 0-2.359 1.272-3.44 3.264-3.44.948 0 1.693.2 1.693.2v1.816h-.89v-.849l-.153-.143c-.192-.037-.4-.066-.65-.066-1.284 0-1.657.878-1.657 2.35 0 1.72.393 2.638 1.751 2.638h.27V4.395l-.172-.171h-.364v-.698h2.344v.698h-.278l-.16.169zM55.003 6.103h.536V6.8H52.79v-.698h.42l.173-.172V2.608l-.172-.171h-.421v-.698h1.521c.384 0 .441.22.441.42v.249h.05c.151-.192.63-.764 1.378-.764.18 0 .364.029.364.029v1.996h-.863V3l-.163-.15c-.298.057-.545.17-.68.248v2.834l.164.172zM59.37 6.895c-1.292 0-2.287-.812-2.287-2.628s.995-2.625 2.287-2.625c1.292 0 2.287.812 2.287 2.625 0 1.816-.995 2.628-2.287 2.628zm0-4.344c-.642 0-.805.555-.805 1.719 0 1.166.163 1.718.805 1.718s.805-.554.805-1.718c-.003-1.167-.163-1.72-.805-1.72zM66.577 1.739c.384 0 .441.22.441.42v3.772l.172.172h.422V6.8H66.09c-.384 0-.441-.22-.441-.42v-.152h-.05c-.154.171-.621.669-1.357.669-1.138 0-1.473-.69-1.473-1.527V2.61l-.172-.172h-.422v-.697h1.608c.384 0 .441.22.441.42v2.98c0 .286.029.678.585.678.335 0 .602-.155.757-.258V2.611l-.172-.172h-.422v-.697h1.605v-.003zM68.041 1.739h1.522c.384 0 .441.22.441.42v.152h.029c.23-.315.736-.67 1.301-.67.994 0 1.828.764 1.828 2.58s-.83 2.674-1.828 2.674c-.487 0-.994-.277-1.244-.583v1.24l.164.172h.487v.698h-2.7v-.698h.422l.172-.171V2.605l-.172-.171h-.422v-.695zm2.777.992c-.209 0-.478.114-.728.335v2.502c.25.2.528.249.728.249.642 0 .863-.45.863-1.547 0-1.098-.22-1.539-.863-1.539z" transform="translate(41.92 38.42)">
   </path>
  </g>
 </g>
</svg>