<svg version="1.1" id="Layer_1" xmlns="http://www.w3.org/2000/svg" xmlns:xlink="http://www.w3.org/1999/xlink" x="0px" y="0px" viewBox="0 0 243.1 57" style="enable-background:new 0 0 243.1 57;" xml:space="preserve">
 <style type="text/css">
  .st0{fill:#231F20;}
	.st1{fill:#4D3566;}
	.st2{fill:#694D87;}
	.st3{fill:#8262A9;}
	.st4{fill:#007174;}
	.st5{fill:#00AFB4;}
	.st6{fill:#B9131A;}
	.st7{fill:#EC1C24;}
 </style>
 <g>
  <g>
   <path class="st0" d="M8.6,13.6V28h0.1c2-2.6,4.4-3.9,7.8-3.9c6.1,0,9.1,4.1,9.1,10.2v14.9H17V36.7c0-2.8-0.4-5.8-3.9-5.8
			c-3.4,0-4.5,2.9-4.5,5.8v12.4H0V13.6H8.6z">
   </path>
   <path class="st0" d="M54.8,38.5H36.7c0,3.5,1.8,5.4,5.4,5.4c1.8,0,3.2-0.6,4.1-2.2h8.3c-1.4,5.7-6.8,8.3-12.3,8.3
			c-8,0-14-4.5-14-12.9c0-8.1,5.5-13,13.4-13c8.4,0,13.3,5.2,13.3,13.5V38.5z M46.8,33.5c-0.4-2.3-2.6-3.8-4.9-3.8
			c-2.5,0-4.6,1.3-5.1,3.8H46.8z">
   </path>
   <rect x="57.3" y="13.6" class="st0" width="8.6" height="35.6">
   </rect>
   <polygon class="st0" points="82.2,37.3 88,24.9 97.6,24.9 84.9,49.2 79.5,49.2 66.7,24.9 76.4,24.9 		">
   </polygon>
   <path class="st0" d="M122.2,38.5h-18.1c0,3.5,1.8,5.4,5.4,5.4c1.8,0,3.2-0.6,4.1-2.2h8.3c-1.4,5.7-6.8,8.3-12.3,8.3
			c-8,0-14-4.5-14-12.9c0-8.1,5.5-13,13.4-13c8.4,0,13.3,5.2,13.3,13.5V38.5z M114.2,33.5c-0.4-2.3-2.6-3.8-4.9-3.8
			c-2.5,0-4.6,1.3-5.1,3.8H114.2z">
   </path>
   <polygon class="st0" points="134.9,49.2 126.3,49.2 126.3,32 123.5,32 123.5,24.9 126.3,24.9 126.3,17.6 134.9,17.6 134.9,24.9 
			139.8,24.9 139.8,32 134.9,32 		">
   </polygon>
   <path class="st0" d="M150.5,17.2c0,2.6-2.2,4.8-4.8,4.8c-2.6,0-4.8-2.2-4.8-4.8c0-2.6,2.2-4.8,4.8-4.8
			C148.4,12.4,150.5,14.6,150.5,17.2 M150,49.2h-8.6V24.9h8.6V49.2z">
   </path>
   <path class="st0" d="M180.8,49.2h-8.6v-2.7h-0.1c-1.5,2.4-4.5,3.5-7.3,3.5c-7.2,0-12.3-6-12.3-13c0-7,5-12.9,12.2-12.9
			c2.8,0,5.7,1,7.5,3.2v-2.4h8.6V49.2z M161.4,37.1c0,3.1,2,5.4,5.5,5.4c3.5,0,5.5-2.4,5.5-5.4c0-3-2-5.5-5.5-5.5
			C163.5,31.6,161.4,34.1,161.4,37.1">
   </path>
   <polygon class="st1" points="211.5,39 200.4,41.8 209,22 220.1,19.3 		">
   </polygon>
   <polygon class="st2" points="208.5,2.4 219.6,0 224.1,10.3 213,12.8 		">
   </polygon>
   <polygon class="st3" points="192.2,40.4 208.5,2.4 213,12.8 200.4,41.8 		">
   </polygon>
   <polygon class="st4" points="200.4,41.8 211.5,39 230,42.1 219,45 		">
   </polygon>
  </g>
  <g>
   <polygon class="st5" points="223.5,55.5 188.5,49.2 192.2,40.4 219,45 		">
   </polygon>
   <polygon class="st6" points="213,12.8 224.1,10.3 243.1,53.9 232.1,57 		">
   </polygon>
   <polygon class="st7" points="209,22 213,12.8 232.1,57 223.5,55.5 		">
   </polygon>
  </g>
 </g>
</svg>