<svg version="1.1" id="Layer_1" xmlns:x="ns_extend;" xmlns:i="ns_ai;" xmlns:graph="ns_graphs;" xmlns="http://www.w3.org/2000/svg" xmlns:xlink="http://www.w3.org/1999/xlink" x="0px" y="0px" viewBox="0 0 115.1 56" style="enable-background:new 0 0 115.1 56;" xml:space="preserve">
 <style type="text/css">
  .st0{fill:#DA291C;}
 </style>
 <metadata>
  <sfw xmlns="ns_sfw;">
   <slices>
   </slices>
   <sliceSourceBounds bottomLeftOrigin="true" height="56" width="115.1" x="480.1" y="-38.7">
   </sliceSourceBounds>
  </sfw>
 </metadata>
 <g>
  <path class="st0" d="M57.3,23.7C58,16.9,61.7,12.9,61.7,9c0-2.8-1.1-5.3-4.4-9c-3.3,3.7-4.4,6.1-4.4,9
		C52.9,12.9,56.6,16.9,57.3,23.7z M50.1,22.8c-1.8,1.5-5.2,0.6-5.2-3.2c0-2.1,2.2-3.9,4.3-3.9c4.2,0,6.1,4.5,6.2,6.6
		c0.1,1.6-0.7,4.2-3.4,4.3c1.3-0.6,1.7-2.2,1.6-3.3c-0.1-1.3-1-3-2.8-3c-1,0-1.8,0.7-1.8,1.4C49.1,22.3,49.5,22.8,50.1,22.8
		L50.1,22.8z M64.4,22.8c1.8,1.5,5.2,0.6,5.2-3.2c0-2.1-2.2-3.9-4.3-3.9c-4.2,0-6.1,4.5-6.2,6.6c-0.1,1.6,0.7,4.2,3.4,4.3
		c-1.3-0.6-1.7-2.2-1.6-3.3c0.1-1.3,1-3,2.8-3c1,0,1.8,0.7,1.8,1.4C65.4,22.3,65,22.8,64.4,22.8L64.4,22.8z">
  </path>
  <path d="M27.4,55.7h-3.1v-22h3.1V55.7z M19.3,55.7h-3.1v-9.6H3.1v9.6H0v-22h3.1v9.6h13.1v-9.6h3.1L19.3,55.7L19.3,55.7z
		 M105.7,44.3l9.4,11.4h-3.8l-7.5-9.1l-7.6,9.1h-3.8l9.5-11.4l-8.8-10.6h3.8l6.9,8.4l6.9-8.4h3.8L105.7,44.3z">
  </path>
  <path d="M81.6,33.4c7.3,0,11.8,5.2,11.8,11.3C93.5,50.6,89,56,81.6,56c-7.2,0-11.7-5.3-11.7-11.3C69.9,38.6,74.5,33.4,81.6,33.4z
		 M81.6,53.1c4.9,0,8.6-3.6,8.6-8.4c0-4.8-3.7-8.4-8.6-8.4c-4.9,0-8.5,3.6-8.5,8.4C73.1,49.5,76.7,53.1,81.6,53.1z M67,50.1
		c-1.5,1.8-3.9,3-6.7,3c-4.9,0-8.5-3.6-8.5-8.4c0-4.8,3.7-8.4,8.5-8.4c2.7,0,5,1,6.5,2.8l1.7-2.8c-2-1.8-4.8-2.9-8.2-2.9
		c-7.1,0-11.8,5.2-11.8,11.3c0,6,4.6,11.3,11.7,11.3c3.5,0,6.4-1.2,8.4-3.1L67,50.1L67,50.1z M44.5,37.8c-1.8-1.5-3.9-1.8-5.4-1.8
		c-2.2,0-4.2,1-4.2,2.9c0,4.2,11.2,4.2,11.2,11.2c0,4.6-4.7,6.1-8.2,5.9c-2.4-0.1-4.3-0.6-6.2-1.9V51c1.9,1.2,3.7,1.9,5.8,2.1
		c2.3,0.2,5.6-0.3,5.6-3.1c0-4.5-11.3-4.7-11.3-10.7c0-3.6,3.2-5.9,7-5.9c2.5,0,4.1,0.5,5.7,1.4L44.5,37.8L44.5,37.8L44.5,37.8z">
  </path>
 </g>
</svg>