<?xml version="1.0" encoding="utf-8"?>
<!-- Generator: Adobe Illustrator 26.5.0, SVG Export Plug-In . SVG Version: 6.00 Build 0)  -->
<svg version="1.1" id="Capa_1" xmlns="http://www.w3.org/2000/svg" xmlns:xlink="http://www.w3.org/1999/xlink" width="135.9" height="18.8" x="0px" y="0px" viewBox="0 0 135.9 18.8" style="enable-background:new 0 0 135.9 18.8;" xml:space="preserve">
<style type="text/css">
	.st0{fill:#FFFFFF;}
	.st1{fill:#FAB937;}
</style>
<g>
	<g>
		<g>
			<g>
				<g>
					<g>
						<path class="st0" d="M113.7,0.6h1.2c0.1,0,0.2,0.1,0.2,0.2V7c0,0.1-0.1,0.2-0.2,0.2h-1.5c-0.1,0-0.2-0.1-0.2-0.2
							c-0.7-2.8-2.3-4.8-5.4-4.8c-2.4,0-3.4,0.6-3.4,2.4c0,4,11.7,1,11.7,8.5c0,4.3-3.2,5.6-6.9,5.6c-1.9,0-3.7-0.8-5.2-1.9
							c-0.1-0.1-0.3,0-0.4,0.1l-0.4,1.1c0,0.1-0.1,0.1-0.2,0.1h-1.4c-0.1,0-0.2-0.1-0.2-0.2v-6.8c0-0.1,0.1-0.2,0.2-0.2h1.5
							c0.1,0,0.2,0.1,0.2,0.2c0.4,3.4,2.6,5.3,6.2,5.3c2.3,0,3.4-1.1,3.4-2.4c0-4.5-11.7-1.1-11.7-8.7c0-3.7,3.3-5.3,6.5-5.3
							c1.9,0,3.5,0.8,4.8,1.7c0.1,0.1,0.2,0,0.3-0.1l0.7-1C113.5,0.7,113.6,0.6,113.7,0.6z"/>
						<path class="st0" d="M135.9,9.4c0,5.3-3.8,9.4-9.5,9.4c-5.7,0-9.5-4.1-9.5-9.4s3.8-9.4,9.5-9.4C132.1,0,135.9,4.1,135.9,9.4z
							 M121,9.4c0,3.8,1.2,7.3,5.4,7.3c4.1,0,5.3-3.5,5.3-7.3s-1.1-7.3-5.4-7.3C122.2,2.1,121,5.6,121,9.4z"/>
						<path class="st0" d="M54.7,0c-5.7,0-9.5,4.1-9.5,9.4s3.8,9.4,9.5,9.4s9.5-4.1,9.5-9.4S60.4,0,54.7,0z M54.8,16.7
							c-4.2,0-5.4-3.5-5.4-7.3s1.2-7.3,5.4-7.3c4.2,0,5.4,3.5,5.4,7.3S59,16.7,54.8,16.7z"/>
						<path class="st0" d="M80.8,11.5H79c-0.1,0-0.2,0.1-0.2,0.2c-0.3,2.7-1.8,4.7-4.7,4.7c-3.7,0-4.8-3.6-4.8-7c0-3.5,1-7,4.8-7
							c3,0,4.5,2.2,4.9,5c0,0.1,0.1,0.2,0.2,0.2h1.5c0.1,0,0.2-0.1,0.2-0.2V0.5c0-0.1-0.1-0.2-0.2-0.2h-1.5c-0.1,0-0.2,0.1-0.2,0.2
							l-0.3,1.2c0,0.2-0.2,0.2-0.4,0.1c-1.2-1-2.9-1.7-4.5-1.7c-5.5,0-8.7,4.1-8.7,9.1c0,5.7,2.9,9.6,8.4,9.6c4.5,0,7.1-2.5,7.5-7
							C81,11.6,80.9,11.5,80.8,11.5z"/>
						<path class="st0" d="M99.8,16.3c-1.3,0-2.1-0.3-2.5-1.4L92.1,0.7c0-0.1-0.1-0.1-0.2-0.1h-3.4c-0.1,0-0.2,0.1-0.2,0.2l-5,14.1
							c-0.4,1.2-1.3,1.4-2.5,1.4c-0.1,0-0.2,0.1-0.2,0.2V18c0,0.1,0.1,0.2,0.2,0.2h7.7c0.1,0,0.2-0.1,0.2-0.2v-1.5
							c0-0.1-0.1-0.2-0.2-0.2h-1.9c-0.5,0-0.9-0.1-0.9-0.5c0-0.2,0.1-0.4,0.1-0.6l0.8-2.6c0-0.1,0.1-0.2,0.2-0.2h5.8
							c0.1,0,0.2,0.1,0.2,0.2l0.8,2.6c0.1,0.2,0.1,0.4,0.1,0.6c0,0.3-0.2,0.4-0.8,0.4h-1.9c-0.1,0-0.2,0.1-0.2,0.2V18
							c0,0.1,0.1,0.2,0.2,0.2h8.7c0.1,0,0.2-0.1,0.2-0.2v-1.5C100,16.4,99.9,16.3,99.8,16.3z M91.7,10.6h-3.8
							c-0.2,0-0.3-0.1-0.2-0.3l2-6.2h0.1l2.2,6.2C92,10.5,91.9,10.6,91.7,10.6z"/>
					</g>
				</g>
			</g>
		</g>
	</g>
	<g>
		<path class="st1" d="M3.7,13.4l4.1,1.3c0.1,0.1,0.3,0,0.4-0.1l0.2-0.4c0.1-0.1,0-0.3-0.1-0.4l-3.8-2.1c-0.1-0.1-0.3,0-0.4,0.1
			l-0.5,1.2C3.5,13.2,3.6,13.4,3.7,13.4z"/>
		<path class="st1" d="M10.2,10.9c0.1,0.1,0.3,0.1,0.4,0l0.3-0.3c0.1-0.1,0.1-0.3,0-0.4L6.3,5C6.2,4.9,6,4.9,5.9,5L5,5.9
			C4.9,6,4.9,6.2,5,6.3L10.2,10.9z"/>
		<path class="st1" d="M13.8,8.3c0.1,0.1,0.2,0.2,0.4,0.1l0.4-0.2c0.1-0.1,0.2-0.2,0.1-0.4l-1.3-4.1c-0.1-0.1-0.2-0.2-0.4-0.1
			l-1.2,0.5c-0.1,0.1-0.2,0.2-0.1,0.4L13.8,8.3z"/>
		<path class="st1" d="M18.4,7.5h0.5c0.2,0,0.3-0.1,0.3-0.3l0.4-7c0-0.2-0.1-0.3-0.3-0.3H18c-0.2,0-0.3,0.1-0.3,0.3l0.4,7
			C18.1,7.4,18.2,7.5,18.4,7.5z"/>
		<path class="st1" d="M28.8,14.2l0.2,0.4c0.1,0.1,0.2,0.2,0.4,0.1l4.1-1.3c0.1-0.1,0.2-0.2,0.1-0.4l-0.5-1.2
			c-0.1-0.1-0.2-0.2-0.4-0.1L29,13.8C28.8,13.9,28.8,14.1,28.8,14.2z"/>
		<path class="st1" d="M26.7,10.9c0.1,0.1,0.3,0.1,0.4,0l5.2-4.6c0.1-0.1,0.1-0.3,0-0.4L31.4,5c-0.1-0.1-0.3-0.1-0.4,0l-4.7,5.2
			c-0.1,0.1-0.1,0.3,0,0.4L26.7,10.9z"/>
		<path class="st1" d="M22.7,8.3l0.4,0.2c0.1,0.1,0.3,0,0.4-0.1l2.1-3.8c0.1-0.1,0-0.3-0.1-0.4l-1.2-0.5c-0.1-0.1-0.3,0-0.4,0.1
			l-1.3,4.1C22.5,8,22.5,8.2,22.7,8.3z"/>
		<path class="st1" d="M37,16.7H26.9c-0.9-3.7-4.3-6.4-8.3-6.4c-4,0-7.3,2.7-8.3,6.4H0.3c-0.1,0-0.3,0.1-0.3,0.3v1.6
			c0,0.1,0.1,0.3,0.3,0.3H37c0.1,0,0.3-0.1,0.3-0.3v-1.6C37.3,16.8,37.2,16.7,37,16.7z"/>
	</g>
</g>
</svg>
