<svg xmlns="http://www.w3.org/2000/svg" xmlns:xlink="http://www.w3.org/1999/xlink" version="1.1" style="enable-background:new 0 0 325.6 162.8;" xml:space="preserve" width="300" height="74"><rect id="backgroundrect" width="100%" height="100%" x="0" y="0" fill="none" stroke="none"/>
<style type="text/css">
	.st0{fill:#274A97;}
	.st1{fill:#F0B60F;}
	.st2{fill:none;}
</style>

<g class="currentLayer" style=""><title>Layer 1</title><g id="svg_1" class="">
	<path class="st0" d="M0.01000007629394517,51.090000762939454 v22.1 H59.97000007629394 C43.19000007629395,61.45000076293945 23.890000076293944,54.10000076293946 0.01000007629394517,51.090000762939454 " id="svg_2"/>
	<path class="st0" d="M56.72000007629394,0.010000762939455399 c2.81,4.15 4.46,9.53 4.41,14.76 c-0.12000000000000001,11.9 -10.42,21.95 -23.24,22.58 c11.2,3.89 23.24,9.96 35.29,18.5 V0.010000762939455399 H56.72000007629394 z" id="svg_3"/>
	<path class="st0" d="M52.99000007629394,14.210000762939451 c0,-7 -3.88,-11.65 -6.85,-14.2 H0.01000007629394517 V28.800000762939447 C26.860000076293943,31.200000762939453 52.99000007629394,33.46000076293946 52.99000007629394,14.210000762939451 " id="svg_4"/>
	<path class="st0" d="M0.01000007629394517,43.19000076293945 c30.34,2.39 58.08,17.1 73.18,29.99 v-7.52 C39.01000007629395,38.56000076293945 0.01000007629394517,36.870000762939455 0.01000007629394517,36.870000762939455 V43.19000076293945 z" id="svg_5"/>
	<path class="st1" d="M61.13000007629394,14.770000762939453 c0.05000000000000001,-5.23 -1.6,-10.620000000000001 -4.41,-14.77 H46.140000076293944 c2.98,2.55 6.86,7.21 6.86,14.2 c0,19.24 -26.13,16.99 -52.99,14.59 v8.08 c0,0 39.01,1.6900000000000002 73.18,28.79 v-9.82 c-12.05,-8.53 -24.1,-14.6 -35.29,-18.5 C50.710000076293944,36.730000762939454 61.01000007629395,26.690000762939448 61.13000007629394,14.770000762939453 " id="svg_6"/>
	<path class="st0" d="M206.44000007629396,22.36000076293945 H192.57000007629395 l6.93,-15.5 L206.44000007629396,22.36000076293945 zM177.98000007629395,37.72000076293945 h7.77 l3.63,-8.13 h20.33 l3.62,8.13 h7.77 l-16.8,-37.7 h-9.5 h-3.12 v0.8900000000000001 c1.06,0.37000000000000005 1.6,0.97 1.6,1.81 c0,0.53 -0.21000000000000002,1.23 -0.6100000000000001,2.07 L177.98000007629395,37.72000076293945 z" id="svg_7"/>
	<path class="st0" d="M262.86000007629394,2.910000762939454 v34.81 h35.57 v-7.24 h-27.87 V22.200000762939453 h18.5 v-7.24 h-18.5 v-7.71 h26.65 v-7.24 h-34.35 h-1.77 v0.8800000000000001 c0.6600000000000001,0.18000000000000002 1.12,0.42000000000000004 1.3800000000000001,0.7200000000000001 C262.73000007629395,1.910000762939454 262.86000007629394,2.3400007629394537 262.86000007629394,2.910000762939454 " id="svg_8"/>
	<path class="st0" d="M147.05000007629394,22.200000762939453 h18.51 v-7.24 h-18.51 v-7.71 h26.64 v-7.23 h-34.34 h-1.77 v0.8900000000000001 c0.6700000000000002,0.18000000000000002 1.13,0.42000000000000004 1.3800000000000001,0.7100000000000001 c0.25,0.30000000000000004 0.38000000000000006,0.7300000000000001 0.38000000000000006,1.3 v34.8 h35.57 v-7.23 h-27.87 V22.200000762939453 z" id="svg_9"/>
	<rect x="0" y="0.01000213623046875" class="st2" width="299.92999267578125" height="74.18000030517578" id="svg_10"/>
	<path class="st0" d="M225.47000007629396,2.910000762939454 v34.81 h32.07 v-7.24 h-24.37 V0.010000762939455399 h-7.71 h-1.7600000000000002 v0.8800000000000001 c0.6600000000000001,0.18000000000000002 1.12,0.42000000000000004 1.3800000000000001,0.7200000000000001 C225.35000007629395,1.910000762939454 225.47000007629396,2.3400007629394537 225.47000007629396,2.910000762939454 " id="svg_11"/>
	<path class="st0" d="M122.55000007629394,15.790000762939457 c-0.9,0.9 -2.17,1.35 -3.81,1.35 h-17.41 v-9.9 h17.37 c1.6,0 2.87,0.44000000000000006 3.8,1.33 c0.9400000000000001,0.8900000000000001 1.4100000000000001,2.06 1.4100000000000001,3.51 C123.91000007629395,13.660000762939454 123.46000007629394,14.89000076293945 122.55000007629394,15.790000762939457 M131.52000007629394,12.350000762939452 c0,-3.68 -1.09,-6.65 -3.2800000000000002,-8.93 c-2.19,-2.27 -5.08,-3.41 -8.66,-3.41 h-25.94 h-1.77 v0.8900000000000001 c0.6600000000000001,0.18000000000000002 1.12,0.42000000000000004 1.3800000000000001,0.7100000000000001 c0.26,0.30000000000000004 0.38000000000000006,0.7300000000000001 0.38000000000000006,1.3 v34.8 h7.7 V24.39000076293945 h14.56 l7.77,13.32 h8.69 l-8.05,-14 C129.12000007629393,22.150000762939456 131.52000007629394,18.36000076293945 131.52000007629394,12.350000762939452 " id="svg_12"/>
	<path class="st0" d="M117.65000007629394,65.46000076293946 c0,2.71 -1.03,4.84 -3.13,6.32 c-2.09,1.51 -5.12,2.27 -9.07,2.27 c-5.26,0 -9.79,-1.55 -13.58,-4.67 l2.7800000000000002,-4.06 c3.51,2.58 7.18,3.85 11.04,3.85 c2.03,0 3.67,-0.30000000000000004 4.88,-0.9500000000000001 c1.13,-0.6600000000000001 1.6800000000000002,-1.48 1.6800000000000002,-2.51 c0,-0.99 -0.6200000000000001,-1.6500000000000001 -1.8800000000000001,-1.96 c-0.7300000000000001,-0.17 -2.48,-0.3400000000000001 -5.26,-0.48000000000000004 c-4.19,-0.2 -7.25,-0.8600000000000001 -9.14,-1.96 c-1.99,-1.1400000000000001 -3.02,-2.92 -3.02,-5.36 c0,-2.47 1.03,-4.43 3.02,-5.84 c2.03,-1.4100000000000001 4.92,-2.13 8.66,-2.13 c5.09,0 9.18,1.2 12.27,3.64 l-3.4,4.75 l-0.45,-0.38000000000000006 c0.04000000000000001,-0.1 0.04000000000000001,-0.21000000000000002 0.06000000000000001,-0.28 c0.08000000000000002,-0.38000000000000006 -0.41000000000000003,-0.8900000000000001 -1.05,-1.24 c-2.31,-1.1 -4.72,-1.6500000000000001 -7.22,-1.6500000000000001 c-4.4,0 -6.6,0.8500000000000001 -6.6,2.6100000000000003 c0,0.8600000000000001 0.5800000000000001,1.44 1.82,1.78 c0.7600000000000001,0.24000000000000002 1.9300000000000002,0.38000000000000006 3.48,0.45 c2.33,0.14 3.81,0.24000000000000002 4.43,0.31000000000000005 c3.37,0.38000000000000006 5.8100000000000005,1.1 7.28,2.19 C116.85000007629395,61.29000076293946 117.65000007629394,63.08000076293945 117.65000007629394,65.46000076293946 " id="svg_13"/>
	<path class="st0" d="M146.51000007629395,73.46000076293946 h-23.47 V50.510000762939455 c0,-0.38000000000000006 -0.07,-0.6600000000000001 -0.24000000000000002,-0.8600000000000001 c-0.17,-0.21000000000000002 -0.48000000000000004,-0.35000000000000003 -0.93,-0.49000000000000005 v-0.5900000000000001 h23.82 v4.78 h-17.56 v5.09 h12.2 v4.78 h-12.2 v5.46 h18.39 V73.46000076293946 z" id="svg_14"/>
	<path class="st0" d="M177.03000007629396,60.78000076293945 c0,3.81 -1.23,6.94 -3.75,9.31 c-2.81,2.71 -6.49,4.09 -10.93,4.09 c-4.3,0 -7.83,-1.3800000000000001 -10.59,-4.13 c-2.4,-2.38 -3.6,-5.4 -3.6,-9.07 c0,-3.62 1.2,-6.6 3.6,-9 c2.8200000000000003,-2.7600000000000002 6.37,-4.16 10.59,-4.16 c5.47,0 9.52,1.99 12.17,5.91 l-6.63,2.8200000000000003 l-0.21000000000000002,-0.42000000000000004 c0.1,-0.13 0.21000000000000002,-0.23 0.24000000000000002,-0.3400000000000001 c0.17,-0.21000000000000002 0.21000000000000002,-0.55 0.14,-0.7500000000000001 c-0.14,-0.49000000000000005 -0.7200000000000001,-0.9400000000000001 -1.3800000000000001,-1.31 c-1.27,-0.6900000000000002 -2.75,-1.06 -4.36,-1.06 c-2.72,0 -4.92,0.79 -6.63,2.38 c-1.6800000000000002,1.58 -2.54,3.5700000000000003 -2.54,5.94 c0,2.6100000000000003 1,4.74 3.06,6.32 c1.73,1.34 3.75,2.03 6.15,2.03 c2.07,0 3.92,-0.48000000000000004 5.57,-1.48 c1.61,-0.93 2.7800000000000002,-2.17 3.47,-3.75 h-10.11 v-4.78 h15.74 V60.78000076293945 z" id="svg_15"/>
	<path class="st0" d="M206.83000007629394,65.08000076293945 c0,2.68 -1.1400000000000001,4.85 -3.37,6.53 c-2.34,1.7200000000000002 -5.43,2.58 -9.28,2.58 c-3.85,0 -6.95,-0.8600000000000001 -9.28,-2.58 c-2.23,-1.6800000000000002 -3.37,-3.85 -3.37,-6.53 V50.47000076293945 c0,-0.38000000000000006 -0.1,-0.6500000000000001 -0.27,-0.8600000000000001 c-0.14,-0.17 -0.45,-0.3400000000000001 -0.9,-0.45 v-0.5900000000000001 h6.25 v15.71 c0,1.54 0.6500000000000001,2.7800000000000002 1.99,3.71 c1.34,0.93 3.2,1.4100000000000001 5.57,1.4100000000000001 c2.37,0 4.22,-0.48000000000000004 5.6,-1.44 c1.31,-0.93 1.96,-2.16 1.96,-3.68 V48.58000076293945 h5.09 V65.08000076293945 z" id="svg_16"/>
	<path class="st0" d="M233.50000007629396,56.55000076293945 c0,-0.9600000000000001 -0.31000000000000005,-1.7200000000000002 -0.93,-2.3 c-0.6100000000000001,-0.6200000000000001 -1.48,-0.9 -2.51,-0.9 h-11.48 v6.54 h11.48 c1.1,0 1.9300000000000002,-0.31000000000000005 2.55,-0.9 C233.19000007629396,58.41000076293945 233.50000007629396,57.590000762939454 233.50000007629396,56.55000076293945 M233.32000007629395,73.46000076293946 l-5.11,-8.8 h-9.63 v8.8 h-5.08 V50.510000762939455 c0,-0.38000000000000006 -0.07,-0.6900000000000002 -0.24000000000000002,-0.8600000000000001 c-0.17,-0.21000000000000002 -0.48000000000000004,-0.35000000000000003 -0.93,-0.49000000000000005 v-0.5900000000000001 h18.29 c2.37,0 4.29,0.7600000000000001 5.74,2.27 c1.45,1.47 2.16,3.43 2.16,5.87 c0,3.95 -1.58,6.47 -4.77,7.49 l5.32,9.25 H233.32000007629395 z" id="svg_17"/>
	<path class="st0" d="M265.53000007629396,60.99000076293946 c0,-2.48 -0.8200000000000001,-4.5 -2.45,-6.05 c-1.6500000000000001,-1.54 -3.8200000000000003,-2.34 -6.53,-2.34 c-2.72,0 -4.88,0.8 -6.53,2.34 c-1.62,1.55 -2.45,3.58 -2.45,6.05 c0,2.54 0.8,4.57 2.41,6.12 c1.62,1.55 3.8200000000000003,2.3 6.53,2.3 c2.74,0 4.95,-0.7500000000000001 6.5600000000000005,-2.3 C264.71000007629397,65.56000076293945 265.53000007629396,63.53000076293945 265.53000007629396,60.99000076293946 M270.7600000762939,60.99000076293946 c0,3.71 -1.21,6.73 -3.6100000000000003,9.11 c-2.75,2.71 -6.29,4.08 -10.620000000000001,4.08 c-4.3,0 -7.84,-1.37 -10.58,-4.08 c-2.38,-2.38 -3.59,-5.4 -3.59,-9.11 c0,-3.64 1.21,-6.67 3.6100000000000003,-9.04 c2.79,-2.75 6.33,-4.12 10.59,-4.12 c4.26,0 7.8,1.37 10.59,4.12 C269.55000007629394,54.32000076293946 270.7600000762939,57.340000762939454 270.7600000762939,60.99000076293946 " id="svg_18"/>
	<path class="st0" d="M299.9400000762939,65.46000076293946 c0,2.71 -1.03,4.84 -3.13,6.32 c-2.09,1.51 -5.11,2.27 -9.07,2.27 c-5.26,0 -9.79,-1.55 -13.57,-4.67 l2.7800000000000002,-4.06 c3.51,2.58 7.19,3.85 11.04,3.85 c2.02,0 3.67,-0.30000000000000004 4.88,-0.9500000000000001 c1.12,-0.6600000000000001 1.6800000000000002,-1.48 1.6800000000000002,-2.51 c0,-0.99 -0.6300000000000001,-1.6500000000000001 -1.8900000000000001,-1.96 c-0.7200000000000001,-0.17 -2.47,-0.3400000000000001 -5.26,-0.48000000000000004 c-4.2,-0.2 -7.25,-0.8600000000000001 -9.14,-1.96 c-1.99,-1.1400000000000001 -3.02,-2.92 -3.02,-5.36 c0,-2.47 1.03,-4.43 3.02,-5.84 c2.03,-1.4100000000000001 4.92,-2.13 8.66,-2.13 c5.08,0 9.18,1.2 12.27,3.64 l-3.4,4.75 l-0.45,-0.38000000000000006 c0.04000000000000001,-0.1 0.04000000000000001,-0.21000000000000002 0.07,-0.28 c0.07,-0.38000000000000006 -0.41000000000000003,-0.8900000000000001 -1.06,-1.24 c-2.31,-1.1 -4.72,-1.6500000000000001 -7.22,-1.6500000000000001 c-4.4,0 -6.6,0.8500000000000001 -6.6,2.6100000000000003 c0,0.8600000000000001 0.5900000000000001,1.44 1.82,1.78 c0.7600000000000001,0.24000000000000002 1.9300000000000002,0.38000000000000006 3.47,0.45 c2.34,0.14 3.81,0.24000000000000002 4.43,0.31000000000000005 c3.37,0.38000000000000006 5.8100000000000005,1.1 7.28,2.19 C299.140000076294,61.29000076293946 299.9400000762939,63.08000076293945 299.9400000762939,65.46000076293946 " id="svg_19"/>
</g></g></svg>