<?xml version="1.0" encoding="UTF-8"?> <svg xmlns="http://www.w3.org/2000/svg" xmlns:xlink="http://www.w3.org/1999/xlink" version="1.1" id="Layer_1" x="0px" y="0px" viewBox="0 0 604.7 144.7" style="enable-background:new 0 0 604.7 144.7;" xml:space="preserve"> <style type="text/css"> .st0{fill:#004AB7;} .st1{fill:#66C3FF;} </style> <path class="st0" d="M102.3,70.8v12.7h19.4V45.6c0-8.5-1.2-13.4-4.4-16.9c-4.5-5.2-12.8-7.8-25.1-7.8c-10.6,0-18.5,1.9-23,5.6 c-4.3,3.4-6.5,8.1-6.6,13.5h20c0.2-10.3,2.7-14,9.3-14s9.1,3.9,9.1,13.8v6.9c-16.5,0.4-25.1,1.5-30.6,4c-7.3,3.2-11,8.8-11,16.5 c0,11.3,8.1,18,21.8,18C92.5,85.2,98.7,80.9,102.3,70.8z M88.8,77.9c-5.5,0-8.5-4.3-8.5-12.1c0-10.6,5.5-14.5,20.8-14.5 c0,8.1-0.5,14.5-1.4,17.2C97.7,74.6,93.7,77.9,88.8,77.9z M54.8,64.4c0-9.6-5.8-15.6-18.6-19L28,43.2c-7.2-1.9-10.5-4.7-10.5-9 c0-4.7,4-8.1,9.8-8.1c7.2,0,10.3,4,10.6,13.2h15.4c-1-11.7-10.6-18.6-26-18.6c-16,0-26.4,8-26.4,20.1c0,5.2,2.1,9.8,5.9,12.9 c3.2,2.8,6.1,3.9,13.5,5.9l7.4,1.9c7.7,2.1,10.6,4.5,10.6,9.2c0,5.4-4.1,8.9-10.3,8.9c-7.7,0-11.6-4.3-11.6-12.9v-1.4H0 C0.3,77.8,10.3,85,27.5,85C44.6,85.2,54.8,77.4,54.8,64.4z M252.4,82.5v-6.1c-4.3,1.1-7.3,1.6-9.2,1.6c-5.6,0-7.6-3.3-7.6-12.8V28.6 h16.7v-6.1h-16.7V0.1l-20.7,4.8v17.7h-9.1v6.1h9.1V63c0,6.9,0.7,10.3,2.5,13.8c3.2,5.5,9,8.3,17.5,8.3 C240.1,84.9,246.1,84.1,252.4,82.5z M174.2,32.3c1.4,2.3,1.8,5.2,1.8,11.8v39.2h20.7V44.7c0-7-0.7-10.7-2.8-14.5 c-3.3-5.9-10.2-9.2-19.3-9.2c-7.3,0-13.1,2.2-17.1,6.7c-2.6,2.9-3.7,5.4-5.1,10.9v-16h-19.1v60.9H154V54.1c0-9.2,1-15,3.4-19.4 c1.9-3.7,6.1-6.2,9.9-6.2C170.2,28.5,172.9,30,174.2,32.3z M270.2,50.6c-7.3,3.2-11,8.8-11,16.5c0,11.3,8.1,18,21.8,18 c11.3,0,17.5-4.3,21.1-14.5v12.7h19.4V45.6c0-8.5-1.2-13.4-4.4-16.9c-4.5-5.2-12.8-7.8-25.1-7.8c-10.6,0-18.5,1.9-23,5.6 c-4.3,3.4-6.5,8.1-6.6,13.5h20c0.3-10.2,2.8-13.9,9.4-13.9s9.1,3.9,9.1,13.8v6.9C284.3,47.1,275.7,48.2,270.2,50.6z M299.4,68.6 c-1.9,6.1-5.9,9.4-10.9,9.4c-5.5,0-8.5-4.3-8.5-12.1c0-10.6,5.5-14.5,20.8-14.5C300.8,59.5,300.2,65.8,299.4,68.6z M353.7,0.1H333 v83.3h20.7V0.1z M406.7,78.2c2.6-2.9,3.7-5.4,5.1-10.9v16.1h19.1V22.6h-20.7v29.3c0,9.2-1,15-3.4,19.4c-1.9,3.7-6.1,6.2-9.9,6.2 c-2.9,0-5.5-1.5-6.9-3.7c-1.4-2.5-1.8-5.4-1.8-12V22.6h-20.7v38.7c0,7,0.7,10.7,2.8,14.3c3.4,6.1,10.2,9.4,19.4,9.4 C396.9,84.9,402.7,82.7,406.7,78.2z M473.5,84.9c16.5,0,26-7.3,27.3-21.1h-8.1c-1,9-7.3,15.1-15.6,15.1c-4.8,0-9.2-2.5-11.4-6.5 c-2.8-4.7-3.7-10.2-3.7-20.1c0-10.1,1.9-19.6,4.5-22.7c1.5-1.9,3.9-3,6.5-3c6.3,0,9.1,5.6,9.1,18h19.7C501.6,30.3,490.3,21,472.9,21 c-20.5,0-32.8,12-32.8,32.1C440.2,73.4,452.3,84.9,473.5,84.9z M537.3,0h-18.8l-6.1,17.1h11.9L537.3,0z M511,83.4h20.7V22.6H511 V83.4z M603.1,83.4V45.6c0-8.5-1.2-13.4-4.4-16.9c-4.5-5.2-12.8-7.8-25.1-7.8c-10.6,0-18.5,1.9-23,5.6c-4.3,3.4-6.5,8.1-6.6,13.5h20 c0.3-10.2,2.8-13.9,9.4-13.9c6.6,0,9.1,3.9,9.1,13.8v6.9c-16.5,0.4-25.1,1.5-30.6,4c-7.3,3.2-11,8.8-11,16.5c0,11.3,8.1,18,21.8,18 c11.3,0,17.5-4.3,21.1-14.5v12.7L603.1,83.4L603.1,83.4z M581.1,68.6c-1.9,6.1-5.9,9.4-10.9,9.4c-5.5,0-8.5-4.3-8.5-12.1 c0-10.6,5.5-14.5,20.8-14.5C582.5,59.5,581.9,65.8,581.1,68.6z M138.8,130c-0.9-0.6-2-1-3-1.4c-1.1-0.4-2.1-0.8-3-1.3 s-1.7-1.1-2.4-1.8c-0.6-0.7-0.9-1.7-0.9-3c0-0.7,0.1-1.4,0.4-2c0.3-0.6,0.6-1.2,1.1-1.6c0.5-0.5,1-0.8,1.6-1s1.3-0.4,2.1-0.4 s1.4,0.1,1.9,0.4s1,0.6,1.4,0.9c0.4,0.4,0.7,0.8,0.9,1.2c0.2,0.4,0.4,0.8,0.5,1.2h0.5c0.2-0.8,0.3-1.4,0.5-1.9s0.4-1,0.6-1.5 c-0.8-0.6-1.7-1.1-2.6-1.4c-0.9-0.3-2.1-0.5-3.3-0.5c-1.3,0-2.6,0.2-3.6,0.6c-1.1,0.4-2,0.9-2.8,1.6s-1.3,1.5-1.8,2.4 c-0.4,0.9-0.6,2-0.6,3.1c0,1.6,0.3,2.8,0.9,3.8c0.6,0.9,1.4,1.7,2.4,2.3c0.9,0.6,2,1.1,3,1.5c1.1,0.4,2.1,0.9,3,1.3 c0.9,0.5,1.7,1.1,2.4,1.8c0.6,0.7,0.9,1.7,0.9,3c0,0.8-0.1,1.6-0.4,2.3c-0.3,0.7-0.7,1.3-1.2,1.9c-0.5,0.5-1.1,0.9-1.8,1.3 c-0.7,0.3-1.5,0.5-2.4,0.5s-1.6-0.1-2.3-0.4c-0.7-0.3-1.3-0.6-1.8-1s-1-0.9-1.3-1.4c-0.4-0.5-0.7-1-0.9-1.5h-0.5 c-0.1,0.8-0.2,1.4-0.3,1.9c-0.1,0.5-0.3,1.1-0.5,1.7c0.7,0.6,1.6,1.1,2.6,1.5c1,0.5,2.4,0.7,4,0.7s2.9-0.2,4.2-0.7 c1.2-0.4,2.3-1.1,3.1-1.9c0.8-0.8,1.5-1.8,1.9-2.9c0.4-1.1,0.7-2.3,0.7-3.5c0-1.5-0.3-2.7-0.9-3.5 C140.5,131.3,139.7,130.6,138.8,130z M119,137.2c-0.7-1.6-1.4-3.3-2.2-5.1c-0.8-1.8-1.6-3.7-2.3-5.5c-0.8-1.9-1.5-3.7-2.3-5.5 s-1.5-3.5-2.1-5.1h-0.8c-2.1,4.8-4.2,9.5-6.2,14.2c-2.1,4.7-4.2,9.3-6.4,14c0.5-0.1,1-0.1,1.5-0.1s1,0,1.5,0.1 c0.3-1.2,0.9-2.8,1.6-4.7s1.5-3.9,2.3-6c0.8,0,1.7-0.1,2.5-0.1s1.6,0,2.5,0s1.8,0,2.7,0c0.9,0,1.8,0,2.6,0.1 c0.4,0.9,0.7,1.8,1.1,2.8s0.8,1.9,1.2,2.9c0.4,1,0.7,1.9,1.1,2.7c0.3,0.9,0.6,1.6,0.8,2.2c0.4-0.1,0.7-0.1,1.1-0.1h1.1h1.1 c0.3,0,0.7,0,1.1,0.1c-0.3-0.6-0.8-1.6-1.3-2.8C120.3,140.1,119.7,138.7,119,137.2z M110.9,131.7c-0.8,0-1.5,0-2.3,0 c-0.7,0-1.4,0-2.2,0c-0.8,0-1.5,0-2.2,0l4.4-10.2l4.5,10.2C112.4,131.7,111.7,131.7,110.9,131.7z M159.9,130c-0.9-0.6-2-1-3-1.4 c-1.1-0.4-2.1-0.8-3-1.3s-1.7-1.1-2.4-1.8c-0.6-0.7-0.9-1.7-0.9-3c0-0.7,0.1-1.4,0.4-2c0.3-0.6,0.6-1.2,1.1-1.6c0.5-0.5,1-0.8,1.6-1 s1.3-0.4,2.1-0.4s1.4,0.1,1.9,0.4s1,0.6,1.4,0.9c0.4,0.4,0.7,0.8,0.9,1.2c0.2,0.4,0.4,0.8,0.5,1.2h0.5c0.2-0.8,0.3-1.4,0.5-1.9 s0.4-1,0.6-1.5c-0.8-0.6-1.7-1.1-2.6-1.4c-0.9-0.3-2.1-0.5-3.3-0.5c-1.3,0-2.6,0.2-3.6,0.6c-1.1,0.4-2,0.9-2.8,1.6s-1.3,1.5-1.8,2.4 c-0.4,0.9-0.6,2-0.6,3.1c0,1.6,0.3,2.8,0.9,3.8c0.6,0.9,1.4,1.7,2.4,2.3c0.9,0.6,2,1.1,3,1.5c1.1,0.4,2.1,0.9,3,1.3 c0.9,0.5,1.7,1.1,2.4,1.8c0.6,0.7,0.9,1.7,0.9,3c0,0.8-0.1,1.6-0.4,2.3c-0.3,0.7-0.7,1.3-1.2,1.9c-0.5,0.5-1.1,0.9-1.8,1.3 c-0.7,0.3-1.5,0.5-2.4,0.5s-1.6-0.1-2.3-0.4c-0.7-0.3-1.3-0.6-1.8-1s-1-0.9-1.3-1.4c-0.4-0.5-0.7-1-0.9-1.5h-0.5 c-0.1,0.8-0.2,1.4-0.3,1.9s-0.3,1.1-0.5,1.7c0.7,0.6,1.6,1.1,2.6,1.5c1,0.5,2.4,0.7,4,0.7s2.9-0.2,4.2-0.7c1.2-0.4,2.3-1.1,3.1-1.9 c0.8-0.8,1.5-1.8,1.9-2.9c0.4-1.1,0.7-2.3,0.7-3.5c0-1.5-0.3-2.7-0.9-3.5C161.6,131.3,160.8,130.6,159.9,130z M312,116.5 c0.1,2.4,0.2,4.9,0.3,7.5c0,2.7,0.1,5.4,0.1,8.2v5.5c-1.2-1.2-2.7-2.7-4.3-4.5c-1.6-1.8-3.4-3.6-5.2-5.6c-1.8-2-3.7-4-5.6-6 s-3.6-3.9-5.3-5.7h-0.6c0.1,0.9,0.1,2.3,0.1,4.1c0,1.9,0,4.1,0,6.6c0,0.9,0,1.9,0,3s-0.1,2.3-0.1,3.5s-0.1,2.4-0.2,3.5 c-0.1,1.2-0.1,2.3-0.2,3.3s-0.1,1.9-0.2,2.6c-0.1,0.7-0.1,1.2-0.2,1.5c0.5-0.1,1-0.1,1.5-0.1s1,0,1.4,0.1c0-0.2-0.1-0.6-0.1-1.2 c0-0.6-0.1-1.3-0.1-2.1s-0.1-1.7-0.1-2.6c0-0.9-0.1-1.9-0.1-2.8c0-0.9,0-1.8,0-2.6s0-1.5,0-2.1c0-2.2,0-3.9,0-5.2 c0-1.3,0.1-2.3,0.1-3c3.5,3.7,7,7.4,10.5,11.2c3.5,3.7,6.8,7.4,9.9,11h0.6v-1.3c0-0.6,0-1.4,0-2.3c0-0.9,0-1.8,0-2.8s0-2,0-3 s0-1.9,0-2.9V130c0-0.8,0-1.8,0.1-3.1c0.1-1.3,0.1-2.6,0.2-3.9s0.1-2.6,0.2-3.8c0.1-1.2,0.1-2.1,0.2-2.7c-0.5,0.1-1,0.2-1.3,0.2 C313,116.7,312.6,116.6,312,116.5z M430,130.6c-0.3-2.3-0.5-4.7-0.8-7.1s-0.5-4.9-0.8-7.5h-0.5c-0.7,1.2-1.4,2.6-2.2,4 c-0.8,1.4-1.6,2.9-2.4,4.3c-0.8,1.5-1.6,2.9-2.3,4.4c-0.8,1.4-1.5,2.8-2.2,4s-1.3,2.3-1.8,3.3s-0.9,1.7-1.2,2.2 c-2.1-3.8-4-7.5-5.9-11.1c-1.9-3.6-3.8-7.3-5.6-11.1h-0.7c-0.2,2.2-0.5,4.4-0.8,6.8s-0.6,4.8-1,7.2c-0.3,2.4-0.7,4.9-1.1,7.3 c-0.4,2.4-0.7,4.7-1.1,6.9c0.4,0,0.9-0.1,1.4-0.1s1,0,1.4,0.1c0-1.1,0.1-2.4,0.2-4.1c0.1-1.7,0.3-3.5,0.5-5.4s0.4-3.8,0.6-5.8 c0.2-1.9,0.4-3.7,0.6-5.4h0.1c1.8,3.5,3.5,7,5.3,10.4c1.8,3.4,3.4,6.8,5.1,10.2h0.4c1.6-3.7,3.3-7.1,5.1-10.5 c1.8-3.3,3.6-6.7,5.5-10.1h0.1c0.4,3.5,0.8,6.9,1.1,10.3c0.3,3.4,0.6,6.8,0.9,10.4c0.3,0,0.6-0.1,0.9-0.1h0.9h0.9 c0.3,0,0.6,0,0.9,0.1c-0.3-2.2-0.6-4.5-0.9-6.7C430.5,135.2,430.3,132.9,430,130.6z M452.8,141.9c-0.6,0.1-1.4,0.2-2.3,0.3 s-1.8,0.1-2.8,0.2c-1,0-2,0.1-3,0.1h-2.8c0-0.5,0-1.3-0.1-2.2c0-1,0-2.3,0-3.8v-2.4v-1.6c0-0.4,0-0.8,0-1.1s0-0.5,0-0.8 c0.5,0,1.1,0,2,0c0.8,0,1.7,0,2.6,0s1.9,0,2.8,0.1s1.7,0.1,2.4,0.2c-0.1-0.4-0.1-0.8-0.1-1.2s0-0.9,0.1-1.3 c-0.6,0.1-1.2,0.1-1.9,0.1c-0.7,0-1.4,0.1-2.2,0.1c-0.8,0-1.6,0.1-2.6,0.1c-0.9,0-2,0-3.2,0c0-0.5,0-1.3,0-2.3s0-2,0-3.1 c0-1,0-1.9,0.1-2.7c0-0.8,0.1-1.6,0.1-2.5c1.3,0,2.4,0,3.4,0.1c0.9,0,1.8,0.1,2.6,0.1c0.8,0.1,1.5,0.1,2.3,0.2 c0.7,0.1,1.5,0.1,2.4,0.2c-0.1-0.4-0.1-0.8-0.1-1.2c0-0.4,0-0.8,0.1-1.2c-1.2,0.1-2.4,0.1-3.6,0.1s-2.4,0.1-3.6,0.1s-2.4,0-3.6-0.1 c-1.2,0-2.4-0.1-3.6-0.1c0.1,1.7,0.2,3.4,0.2,5.2c0.1,1.7,0.1,3.5,0.1,5.2v6.9c0,1.8,0,3.5-0.1,5.2s-0.1,3.4-0.2,5.1 c1.2-0.1,2.5-0.1,3.7-0.1h3.7h3.6c1.2,0,2.4,0,3.6,0.1c-0.1-0.3-0.1-0.6-0.1-1c0-0.2,0-0.4,0-0.6 C452.7,142.3,452.7,142.1,452.8,141.9z M480.7,116.5c0.1,2.4,0.2,4.9,0.3,7.5c0,2.7,0.1,5.4,0.1,8.2v5.5c-1.2-1.2-2.7-2.7-4.3-4.5 c-1.7-1.8-3.4-3.6-5.2-5.6c-1.8-2-3.7-4-5.6-6s-3.6-3.9-5.3-5.7H460c0,0.9,0.1,2.3,0.1,4.1c0,1.9,0,4.1,0,6.6c0,0.9,0,1.9,0,3 s-0.1,2.3-0.1,3.5s-0.1,2.4-0.2,3.5c-0.1,1.2-0.1,2.3-0.2,3.3s-0.1,1.9-0.2,2.6c-0.1,0.7-0.1,1.2-0.2,1.5c0.5-0.1,1-0.1,1.5-0.1 s1,0,1.4,0.1c0-0.2-0.1-0.6-0.1-1.2c0-0.6-0.1-1.3-0.1-2.1s-0.1-1.7-0.1-2.6c0-0.9-0.1-1.9-0.1-2.8c0-0.9,0-1.8,0-2.6s0-1.5,0-2.1 c0-2.2,0-3.9,0-5.2c0-1.3,0.1-2.3,0.1-3c3.5,3.7,7,7.4,10.5,11.2c3.5,3.7,6.8,7.4,9.9,11h0.6v-1.3c0-0.6,0-1.4,0-2.3 c0-0.9,0-1.8,0-2.8s0-2,0-3s0-1.9,0-2.9V130c0-0.8,0-1.8,0.1-3.1c0.1-1.3,0.1-2.6,0.2-3.9s0.1-2.6,0.2-3.8c0.1-1.2,0.1-2.1,0.2-2.7 c-0.5,0.1-1,0.2-1.3,0.2C481.7,116.7,481.2,116.6,480.7,116.5z M395,141.9c-0.6,0.1-1.4,0.2-2.3,0.3s-1.8,0.1-2.8,0.2 c-1,0-2,0.1-3,0.1h-2.8c0-0.5,0-1.3-0.1-2.2c0-1,0-2.3,0-3.8v-2.4v-1.6c0-0.4,0-0.8,0-1.1s0-0.5,0-0.8c0.5,0,1.1,0,2,0 c0.8,0,1.7,0,2.6,0s1.9,0,2.8,0.1s1.7,0.1,2.4,0.2c-0.1-0.4-0.1-0.8-0.1-1.2s0-0.9,0.1-1.3c-0.6,0.1-1.2,0.1-1.9,0.1 c-0.7,0-1.4,0.1-2.2,0.1c-0.8,0-1.6,0.1-2.6,0.1c-0.9,0-2,0-3.2,0c0-0.5,0-1.3,0-2.3s0-2,0-3.1c0-1,0-1.9,0.1-2.7 c0-0.8,0.1-1.6,0.1-2.5c1.3,0,2.4,0,3.4,0.1c0.9,0,1.8,0.1,2.6,0.1c0.8,0.1,1.5,0.1,2.3,0.2c0.7,0.1,1.5,0.1,2.4,0.2 c-0.1-0.4-0.1-0.8-0.1-1.2c0-0.4,0-0.8,0.1-1.2c-1.2,0.1-2.4,0.1-3.6,0.1s-2.4,0.1-3.6,0.1s-2.4,0-3.6-0.1c-1.2,0-2.4-0.1-3.6-0.1 c0.1,1.7,0.2,3.4,0.2,5.2c0.1,1.7,0.1,3.5,0.1,5.2v6.9c0,1.8,0,3.5-0.1,5.2s-0.1,3.4-0.2,5.1c1.2-0.1,2.5-0.1,3.7-0.1h3.7h3.6 c1.2,0,2.4,0,3.6,0.1c-0.1-0.3-0.1-0.6-0.1-1c0-0.2,0-0.4,0-0.6C394.9,142.3,394.9,142.1,395,141.9z M504.3,116.7 c-1.7,0-3.4,0.1-5.2,0.1c-1.8,0-3.5,0-5.2-0.1s-3.4-0.1-5.2-0.1c0.1,0.5,0.2,1,0.2,1.2c0,0.4-0.1,0.8-0.2,1.3 c0.6-0.1,1.2-0.1,1.9-0.2c0.7-0.1,1.5-0.1,2.2-0.1c0.8,0,1.5-0.1,2.3-0.1s1.5,0,2.2,0c0.1,2.8,0.1,5.5,0.1,8.3v6.9 c0,1.8,0,3.5-0.1,5.2s-0.1,3.4-0.2,5.1c0.6,0,1.3-0.1,2-0.1s1.4,0,2,0.1c-0.1-1.7-0.2-3.4-0.2-5.1c-0.1-1.7-0.1-3.5-0.1-5.2V127 c0-2.8,0-5.6,0.1-8.3c0.7,0,1.4,0,2.2,0c0.8,0,1.5,0,2.3,0.1c0.8,0,1.5,0.1,2.2,0.1c0.7,0.1,1.3,0.1,1.9,0.2 c-0.1-0.5-0.2-0.9-0.2-1.3c0-0.3,0.1-0.8,0.2-1.3C507.7,116.6,506,116.6,504.3,116.7z M282.1,137.2c-0.7-1.6-1.4-3.3-2.2-5.1 c-0.8-1.8-1.6-3.7-2.3-5.5c-0.8-1.9-1.5-3.7-2.3-5.5s-1.5-3.5-2.1-5.1h-0.8c-2.1,4.8-4.2,9.5-6.2,14.2c-2.1,4.7-4.2,9.3-6.4,14 c0.5-0.1,1-0.1,1.5-0.1s1,0,1.5,0.1c0.3-1.2,0.9-2.8,1.6-4.7s1.5-3.9,2.3-6c0.8,0,1.7-0.1,2.5-0.1s1.6,0,2.5,0s1.8,0,2.7,0 c0.9,0,1.8,0,2.6,0.1c0.4,0.9,0.7,1.8,1.1,2.8s0.8,1.9,1.2,2.9c0.4,1,0.7,1.9,1.1,2.7c0.3,0.9,0.6,1.6,0.8,2.2 c0.4-0.1,0.7-0.1,1.1-0.1h1.1h1.1c0.3,0,0.7,0,1.1,0.1c-0.3-0.6-0.8-1.6-1.3-2.8C283.4,140.1,282.8,138.7,282.1,137.2z M274.1,131.7 c-0.8,0-1.5,0-2.3,0c-0.7,0-1.4,0-2.2,0c-0.8,0-1.5,0-2.2,0l4.4-10.2l4.5,10.2C275.6,131.7,274.9,131.7,274.1,131.7z M354.3,120.6 c1.1-1.1,2.3-1.8,3.7-2.4c1.4-0.5,3-0.8,4.7-0.8c1,0,2,0.1,2.9,0.3c0.9,0.2,1.7,0.5,2.5,0.9c0.7,0.4,1.4,0.8,2,1.3s1.1,1,1.5,1.5 h0.5c0.1-0.5,0.2-1.1,0.3-1.6c0.2-0.6,0.4-1.1,0.6-1.4c-0.5-0.2-1-0.5-1.7-0.8c-0.6-0.3-1.3-0.5-2.2-0.8c-0.8-0.2-1.8-0.4-2.8-0.6 c-1.1-0.1-2.3-0.2-3.6-0.2c-2.4,0-4.5,0.3-6.5,1c-1.9,0.6-3.6,1.6-5,2.8c-1.4,1.2-2.4,2.7-3.2,4.5c-0.8,1.8-1.1,3.8-1.1,6.1 c0,2.4,0.4,4.4,1.1,6.2s1.8,3.3,3.1,4.5c1.3,1.2,3,2.1,4.9,2.7c1.9,0.6,4.1,0.9,6.5,0.9c0.8,0,1.6-0.1,2.6-0.2 c1-0.1,1.9-0.3,2.9-0.4c1-0.1,1.9-0.3,2.7-0.6c0.8-0.2,1.6-0.5,2.1-0.7c0-0.5,0-1.1,0-1.6c0-0.6,0-1.1,0-1.6c0-2.2,0-3.9,0-5.3 c0-1.3,0.1-2.3,0.1-2.9c-0.3,0.1-0.5,0.1-0.8,0.2c-0.3,0-0.6,0-0.9,0c-0.6,0-1.3-0.1-1.9-0.2c0.1,0.9,0.1,1.8,0.1,2.7 s0.1,1.9,0.1,2.8c0,0.8,0,1.6,0,2.4c0,0.8,0,1.6-0.1,2.4c-0.4,0.2-0.8,0.4-1.3,0.6c-0.5,0.2-1,0.3-1.6,0.4c-0.6,0.1-1.2,0.2-1.8,0.2 c-0.6,0.1-1.2,0.1-1.8,0.1c-1.9,0-3.6-0.3-5.1-0.9c-1.5-0.6-2.8-1.4-3.8-2.5s-1.8-2.4-2.4-4c-0.5-1.6-0.8-3.4-0.8-5.3 c0-2.2,0.3-4.2,0.9-5.8C352.4,123,353.2,121.7,354.3,120.6z M254.6,130.6c-0.3-2.3-0.5-4.7-0.8-7.1s-0.5-4.9-0.8-7.5h-0.5 c-0.7,1.2-1.4,2.6-2.2,4s-1.6,2.9-2.4,4.3c-0.8,1.5-1.6,2.9-2.3,4.4c-0.8,1.4-1.5,2.8-2.2,4s-1.3,2.3-1.8,3.3s-0.9,1.7-1.2,2.2 c-2.1-3.8-4-7.5-5.9-11.1c-1.9-3.6-3.8-7.3-5.6-11.1h-0.7c-0.2,2.2-0.5,4.4-0.8,6.8s-0.6,4.8-1,7.2c-0.3,2.4-0.7,4.9-1.1,7.3 c-0.4,2.4-0.7,4.7-1.1,6.9c0.4,0,0.9-0.1,1.4-0.1s1,0,1.4,0.1c0-1.1,0.1-2.4,0.2-4.1c0.1-1.7,0.3-3.5,0.5-5.4s0.4-3.8,0.6-5.8 c0.2-1.9,0.4-3.7,0.6-5.4h0.1c1.8,3.5,3.5,7,5.3,10.4c1.8,3.4,3.4,6.8,5.1,10.2h0.4c1.6-3.7,3.3-7.1,5.1-10.5 c1.8-3.3,3.6-6.7,5.5-10.1h0.1c0.4,3.5,0.8,6.9,1.1,10.3s0.6,6.8,0.9,10.4c0.3,0,0.6-0.1,0.9-0.1h0.9h0.9c0.3,0,0.6,0,0.9,0.1 c-0.3-2.2-0.6-4.5-0.9-6.7C255.2,135.2,254.9,132.9,254.6,130.6z M203.4,116.7c-1.7,0-3.4,0.1-5.2,0.1s-3.5,0-5.2-0.1 s-3.4-0.1-5.2-0.1c0.1,0.5,0.2,1,0.2,1.2c0,0.4-0.1,0.8-0.2,1.3c0.6-0.1,1.2-0.1,1.9-0.2s1.5-0.1,2.2-0.1c0.8,0,1.5-0.1,2.3-0.1 s1.5,0,2.2,0c0.1,2.8,0.1,5.5,0.1,8.3v6.9c0,1.8,0,3.5-0.1,5.2s-0.1,3.4-0.2,5.1c0.6,0,1.3-0.1,2-0.1s1.4,0,2,0.1 c-0.1-1.7-0.2-3.4-0.2-5.1c-0.1-1.7-0.1-3.5-0.1-5.2V127c0-2.8,0-5.6,0.1-8.3c0.7,0,1.4,0,2.2,0s1.5,0,2.3,0.1 c0.8,0,1.5,0.1,2.2,0.1c0.7,0.1,1.4,0.1,1.9,0.2c-0.1-0.5-0.2-0.9-0.2-1.3c0-0.3,0.1-0.8,0.2-1.3 C206.8,116.6,205.1,116.6,203.4,116.7z M184.1,141.9c-0.6,0.1-1.4,0.2-2.3,0.3c-0.9,0.1-1.8,0.1-2.8,0.2c-1,0-2,0.1-3,0.1h-2.8 c0-0.5,0-1.3-0.1-2.2c0-1,0-2.3,0-3.8v-2.4v-1.6c0-0.4,0-0.8,0-1.1s0-0.5,0-0.8c0.5,0,1.1,0,2,0c0.8,0,1.7,0,2.6,0 c0.9,0,1.9,0,2.8,0.1c0.9,0.1,1.7,0.1,2.4,0.2c-0.1-0.4-0.1-0.8-0.1-1.2s0-0.9,0.1-1.3c-0.6,0.1-1.2,0.1-1.9,0.1s-1.4,0.1-2.2,0.1 s-1.6,0.1-2.6,0.1c-0.9,0-2,0-3.2,0c0-0.5,0-1.3,0-2.3s0-2,0-3.1c0-1,0-1.9,0.1-2.7c0-0.8,0.1-1.6,0.1-2.5c1.3,0,2.4,0,3.4,0.1 c0.9,0,1.8,0.1,2.6,0.1c0.8,0.1,1.5,0.1,2.3,0.2c0.7,0.1,1.5,0.1,2.4,0.2c-0.1-0.4-0.1-0.8-0.1-1.2c0-0.4,0-0.8,0.1-1.2 c-1.2,0.1-2.4,0.1-3.6,0.1c-1.2,0-2.4,0.1-3.6,0.1c-1.2,0-2.4,0-3.6-0.1c-1.2,0-2.4-0.1-3.6-0.1c0.1,1.7,0.2,3.4,0.2,5.2 c0.1,1.7,0.1,3.5,0.1,5.2v6.9c0,1.8,0,3.5-0.1,5.2s-0.1,3.4-0.2,5.1c1.2-0.1,2.5-0.1,3.7-0.1h3.7h3.6c1.2,0,2.4,0,3.6,0.1 c-0.1-0.3-0.1-0.6-0.1-1c0-0.2,0-0.4,0-0.6C184,142.3,184.1,142.1,184.1,141.9z M341.5,137.2c-0.7-1.6-1.4-3.3-2.2-5.1 c-0.8-1.8-1.6-3.7-2.3-5.5c-0.8-1.9-1.5-3.7-2.3-5.5s-1.5-3.5-2.1-5.1h-0.8c-2.1,4.8-4.2,9.5-6.2,14.2c-2.1,4.7-4.2,9.3-6.4,14 c0.5-0.1,1-0.1,1.5-0.1s1,0,1.5,0.1c0.3-1.2,0.9-2.8,1.6-4.7s1.5-3.9,2.3-6c0.8,0,1.7-0.1,2.5-0.1s1.6,0,2.5,0s1.8,0,2.7,0 c0.9,0,1.8,0,2.6,0.1c0.3,0.9,0.7,1.8,1.1,2.8s0.8,1.9,1.2,2.9c0.4,1,0.7,1.9,1.1,2.7c0.3,0.9,0.6,1.6,0.8,2.2 c0.4-0.1,0.7-0.1,1.1-0.1h1.1h1.1c0.3,0,0.7,0,1.1,0.1c-0.3-0.6-0.8-1.6-1.3-2.8C342.8,140.1,342.2,138.7,341.5,137.2z M333.4,131.7 c-0.8,0-1.5,0-2.3,0c-0.7,0-1.4,0-2.2,0c-0.8,0-1.5,0-2.2,0l4.4-10.2l4.5,10.2C335,131.7,334.2,131.7,333.4,131.7z"></path> <rect x="47.7" y="111.2" class="st1" width="25.9" height="25.9"></rect> <rect x="1.6" y="111.2" class="st1" width="20.3" height="20.3"></rect> <rect x="532.7" y="111.2" class="st1" width="25.9" height="25.9"></rect> <rect x="584.4" y="111.2" class="st1" width="20.3" height="20.3"></rect> </svg> 